# xmcd
#
# Track frame offsets:
#	150
#	16660
#	25115
#	34044
#	38975
#	46357
#	61116
#	79844
#	91890
#	106308
#	116670
#	128480
#	145392
#	161913
#	177942
#
# Disc length: 2581 seconds
#
# Revision: 1
# Processed by: cddbd v1.5.1PL2 Copyright (c) Steve Scherf et al.
# Submitted via: audiograbber 1.80.04
#
DISCID=ba0a130f
DTITLE=Владимир Высоцкий - 09 Бег иноходца
DYEAR=1900
DGENRE=Vocal
TTITLE0=Разведка боем
TTITLE1=Случай в ресторане
TTITLE2=В холода, в холода ...
TTITLE3=Сыт я по горло, до подбородка ...
TTITLE4=Песенка про метателя молота
TTITLE5=Песенка про прыгуна в высоту
TTITLE6=Баллада о гипсе
TTITLE7=Человек за бортом
TTITLE8=Горизонт
TTITLE9=Песенка о переселении душ
TTITLE10=Мио похороны, или Страшный сон очень смелого человека
TTITLE11=Милицейский протокол
TTITLE12=Бег иноходца
TTITLE13=Честь шахматной короны. Подготовка
TTITLE14=Честь шахматной короны. Игра
EXTD=
EXTT0=
EXTT1=
EXTT2=
EXTT3=
EXTT4=
EXTT5=
EXTT6=
EXTT7=
EXTT8=
EXTT9=
EXTT10=
EXTT11=
EXTT12=
EXTT13=
EXTT14=
PLAYORDER=
